# xmcd
#
# Track frame offsets:
#	150
#	18866
#	31917
#	47448
#	66227
#	93576
#	105299
#	123726
#	143467
#	178489
#
# Disc length: 2746 seconds
#
# Revision: 0
# Processed by: cddbd v1.5.2PL0 Copyright (c) Steve Scherf et al.
# Submitted via: EasyCDDAExtractor 9.0.0.1
#
DISCID=7f0ab80a
DTITLE=Nouvelle Vague - Aula Magna 07.12.07 CD 1
DYEAR=2007
DGENRE=
TTITLE0=The Killing Moon
TTITLE1=Dancing With Myself
TTITLE2=Ever Fallen In Love
TTITLE3=Don't Go
TTITLE4=Heart Of Glass
TTITLE5=Blue Monday
TTITLE6=Human Fly
TTITLE7=Guns Of Brixton
TTITLE8=Too Drunk To Fuck
TTITLE9=Sweet Dreams
EXTD=
EXTT0=
EXTT1=
EXTT2=
EXTT3=
EXTT4=
EXTT5=
EXTT6=
EXTT7=
EXTT8=
EXTT9=
PLAYORDER=
